<svg xmlns="http://www.w3.org/2000/svg" viewBox="0 0 146.6 80"><defs><style>.a{fill:#fdf6cb;}</style></defs><path class="a" d="M.4,54.9v-1l3.6-.5c.3,0,.6-.3.8-.9L20,6h4.6l16,47.5,4.8.3a6.7,6.7,0,0,1-.1,1H31.4a2.8,2.8,0,0,1,.1-1l3.6-.5c.4,0,.6-.3.6-.8L31.8,41.2H10.1L6.4,53.4l8.1.4a4.5,4.5,0,0,0-.1,1ZM20.5,7.4l-10,32.4H31.3Z"/><path class="a" d="M50.1,20H76l.6,1.2h-.1L54.8,53.6H76.3l.4-9.5,1.3-.5V54.7H49.4l-.6-1.2,22-32.4H51.9l-.5,8.4-1.3.5Z"/><path class="a" d="M105.9,52.2h-.2a29,29,0,0,1-12.2,2.9c-6.1,0-9.4-2.4-9.8-7.3v-.9c0-3.6,2.3-6,7-7.2,2.8-.6,7.8-1.3,15-2.2V31.4a15.1,15.1,0,0,0-.7-5,8.1,8.1,0,0,0-1.5-3.1,5.6,5.6,0,0,0-2.1-1.6,11.7,11.7,0,0,0-3.8-.7,13.7,13.7,0,0,0-4.7,1.1,27.1,27.1,0,0,0-6.8,4l-.3,5.4-1.3.4V23.5l.7-.3a43.8,43.8,0,0,1,8.3-2.9,32.1,32.1,0,0,1,4.2-.5h2.5a18.9,18.9,0,0,1,3.2.7,11.7,11.7,0,0,1,3.4,1.5,8.8,8.8,0,0,1,2.4,3.1,10,10,0,0,1,1.1,4.8V51.2c0,1.4.3,2.2,1.1,2.2l4.2.2v1a47.2,47.2,0,0,1-7,.6,3.5,3.5,0,0,1-1.7-.9A2.7,2.7,0,0,1,105.9,52.2ZM94.8,54a20.7,20.7,0,0,0,10.9-3.6V38.9c-6.9.2-11.3.6-13.1,1.2a6.3,6.3,0,0,0-3.7,2.7,7.1,7.1,0,0,0-1,3.7v.7a6.8,6.8,0,0,0,2.2,5.2A7.4,7.4,0,0,0,94.8,54Z"/><path class="a" d="M131,22.8v5.6c3.7-5.4,7.3-8.1,10.8-8.2h.9l3.9.5-1.8,4.2a4.8,4.8,0,0,0-3.5-1.4c-3.4.1-6.8,2.3-10.3,6.8V53.4l6,.4a4.5,4.5,0,0,0-.1,1H122.3v-1l3.6-.5c.4,0,.6-.3.6-1V22.2c-.1-.3-.2-.5-.4-.5h-4.2v-1a39.2,39.2,0,0,1,5.7-.6c1.3,0,2.2.3,2.6.9A2.8,2.8,0,0,1,131,22.8Z"/><path class="a" d="M19,72.1l-2-2.8H14.1v2.8H12.8V62.8h3.6a4.1,4.1,0,0,1,2.8.9,2.9,2.9,0,0,1,1.1,2.4,2.8,2.8,0,0,1-.6,1.8A2.5,2.5,0,0,1,18.2,69l2.2,3.1Zm-.7-4.5a2,2,0,0,0,.6-1.5,2.1,2.1,0,0,0-.6-1.6,3.6,3.6,0,0,0-1.9-.5H14.1v4.2h2.3A2.9,2.9,0,0,0,18.3,67.6Z"/><path class="a" d="M31.8,71v1.1H25.1V62.8h6.5V64H26.4v2.8h4.7V68H26.4v3Z"/><path class="a" d="M37.3,71.9a3.8,3.8,0,0,1-1.5-.9l.5-1a4.1,4.1,0,0,0,1.3.8l1.7.3a3,3,0,0,0,1.8-.4,1.4,1.4,0,0,0,.5-1,1,1,0,0,0-.3-.8,1.8,1.8,0,0,0-.7-.5l-1.3-.3-1.7-.5a3.1,3.1,0,0,1-1.1-.8,2.2,2.2,0,0,1-.5-1.4,2.3,2.3,0,0,1,.4-1.4,2.7,2.7,0,0,1,1.2-.9,4,4,0,0,1,2-.4l1.6.2,1.4.6-.5,1.1L40.9,64l-1.3-.2a2.5,2.5,0,0,0-1.7.5,1.1,1.1,0,0,0-.6,1,1.1,1.1,0,0,0,.3.8l.8.5,1.3.3,1.7.5a2.8,2.8,0,0,1,1.1.8,2,2,0,0,1,.4,1.4,2,2,0,0,1-.4,1.3,2.5,2.5,0,0,1-1.2,1,5.6,5.6,0,0,1-2,.3A6.9,6.9,0,0,1,37.3,71.9Z"/><path class="a" d="M49.4,64H46.2V62.8h7.7V64H50.7v8.1H49.4Z"/><path class="a" d="M63.9,69.8H59l-1.1,2.3H56.6l4.2-9.3h1.3l4.2,9.3H64.9Zm-.5-1.1-2-4.5-2,4.5Z"/><path class="a" d="M71.3,71.2a4.5,4.5,0,0,1-1-3.1V62.8h1.3V68c0,2,.9,3,2.6,3a2.6,2.6,0,0,0,2-.7,3.5,3.5,0,0,0,.6-2.3V62.8h1.3v5.3a4.3,4.3,0,0,1-1,3.1,4.7,4.7,0,0,1-5.8,0Z"/><path class="a" d="M89.7,72.1l-2-2.8H84.8v2.8H83.5V62.8h3.6a4.4,4.4,0,0,1,2.9.9,2.8,2.8,0,0,1,1,2.4,3.5,3.5,0,0,1-.5,1.8A3.3,3.3,0,0,1,89,69l2.2,3.1ZM89,67.6a1.8,1.8,0,0,0,.7-1.5,1.9,1.9,0,0,0-.7-1.6,3.3,3.3,0,0,0-1.9-.5H84.8v4.2h2.3A2.7,2.7,0,0,0,89,67.6Z"/><path class="a" d="M101.7,69.8H96.8l-1,2.3H94.4l4.2-9.3h1.3l4.3,9.3h-1.4Zm-.4-1.1-2-4.5-2,4.5Z"/><path class="a" d="M116.2,62.8v9.3h-1.1l-5.6-6.9v6.9h-1.3V62.8h1.1l5.6,6.9V62.8Z"/><path class="a" d="M123.5,64h-3.2V62.8H128V64h-3.2v8.1h-1.3Z"/></svg>